<svg width="120" height="40" viewBox="0 0 120 40" fill="none" xmlns="http://www.w3.org/2000/svg">
<path d="M110.135 7.92969e-06H9.53468C9.16798 7.92969e-06 8.80568 7.92975e-06 8.43995 0.00200793C8.1338 0.00400793 7.83009 0.00981793 7.521 0.0147079C6.84951 0.0226097 6.17961 0.0816842 5.5171 0.191418C4.85552 0.303541 4.21467 0.514924 3.61622 0.818418C3.0185 1.12448 2.47235 1.52218 1.99757 1.99708C1.5203 2.47064 1.12246 3.01802 0.81935 3.61817C0.5154 4.21712 0.304641 4.85895 0.19435 5.52149C0.0830109 6.18319 0.0230984 6.85253 0.01515 7.52349C0.00587 7.83009 0.00489 8.13771 0 8.44435V31.5586C0.00489 31.8691 0.00587 32.1699 0.01515 32.4805C0.0231008 33.1514 0.0830134 33.8207 0.19435 34.4824C0.304336 35.1453 0.515108 35.7875 0.81935 36.3867C1.12233 36.9849 1.52022 37.5301 1.99757 38.001C2.47054 38.478 3.01705 38.876 3.61622 39.1797C4.21467 39.484 4.85545 39.6967 5.5171 39.8105C6.17972 39.9194 6.84956 39.9785 7.521 39.9873C7.83009 39.9941 8.1338 39.998 8.43995 39.998C8.80567 40 9.168 40 9.53468 40H110.135C110.494 40 110.859 40 111.219 39.998C111.523 39.998 111.836 39.9941 112.141 39.9873C112.811 39.9789 113.479 39.9198 114.141 39.8105C114.804 39.6959 115.448 39.4833 116.049 39.1797C116.647 38.8758 117.193 38.4779 117.666 38.001C118.142 37.5282 118.541 36.9835 118.848 36.3867C119.15 35.7871 119.358 35.145 119.467 34.4824C119.578 33.8206 119.64 33.1515 119.652 32.4805C119.656 32.1699 119.656 31.8691 119.656 31.5586C119.664 31.1953 119.664 30.834 119.664 30.4648V9.53614C119.664 9.16993 119.664 8.80665 119.656 8.44435C119.656 8.13771 119.656 7.83009 119.652 7.52345C119.64 6.85243 119.578 6.18324 119.467 5.52145C119.358 4.85929 119.149 4.21751 118.848 3.61813C118.23 2.4152 117.252 1.43603 116.049 0.818328C115.448 0.515575 114.804 0.304248 114.141 0.191328C113.48 0.0811107 112.811 0.0220157 112.141 0.0145679C111.836 0.00968793 111.523 0.00382793 111.219 0.00187793C110.859 -0.00012207 110.494 -0.00012207 110.135 -0.00012207V7.92969e-06Z" fill="#A6A6A6"/>
<path d="M8.44484 39.125C8.14016 39.125 7.84284 39.1211 7.54055 39.1143C6.91433 39.1061 6.28957 39.0516 5.67141 38.9512C5.095 38.8519 4.53661 38.6673 4.01467 38.4033C3.49751 38.1415 3.02582 37.7983 2.61767 37.3867C2.20361 36.98 1.85888 36.5082 1.59716 35.9902C1.33255 35.4688 1.14942 34.9099 1.05416 34.333C0.951281 33.7131 0.895621 33.0863 0.887656 32.458C0.881316 32.2471 0.873016 31.5449 0.873016 31.5449V8.44434C0.873016 8.44434 0.881856 7.75293 0.887706 7.5498C0.895332 6.92248 0.950669 6.29665 1.05324 5.67773C1.14868 5.09925 1.33194 4.53875 1.5967 4.01563C1.85746 3.49794 2.20027 3.02586 2.61184 2.61768C3.02294 2.20562 3.49614 1.8606 4.01418 1.59521C4.53492 1.33209 5.09225 1.14873 5.6675 1.05127C6.28769 0.949836 6.91462 0.894996 7.54301 0.88721L8.44533 0.875H111.214L112.127 0.8877C112.75 0.895099 113.371 0.94945 113.985 1.05029C114.566 1.14898 115.13 1.33362 115.656 1.59814C116.694 2.13299 117.539 2.97916 118.071 4.01807C118.332 4.53758 118.512 5.09351 118.606 5.66699C118.71 6.29099 118.768 6.92174 118.78 7.5542C118.783 7.8374 118.783 8.1416 118.783 8.44434C118.791 8.81934 118.791 9.17627 118.791 9.53613V30.4648C118.791 30.8281 118.791 31.1826 118.783 31.54C118.783 31.8652 118.783 32.1631 118.779 32.4697C118.768 33.0909 118.71 33.7104 118.608 34.3232C118.515 34.9043 118.333 35.4675 118.068 35.9932C117.805 36.5056 117.462 36.9733 117.053 37.3789C116.644 37.7927 116.172 38.1379 115.653 38.4014C115.128 38.6674 114.566 38.8527 113.985 38.9512C113.367 39.0522 112.742 39.1067 112.116 39.1143C111.823 39.1211 111.517 39.125 111.219 39.125L110.135 39.127L8.44484 39.125Z" fill="black"/>
<path d="M24.7689 20.3007C24.7796 19.466 25.0013 18.6477 25.4134 17.9217C25.8254 17.1957 26.4144 16.5858 27.1254 16.1486C26.6737 15.5035 26.0778 14.9725 25.3849 14.598C24.6921 14.2234 23.9215 14.0156 23.1343 13.991C21.455 13.8147 19.8271 14.9958 18.9714 14.9958C18.0991 14.9958 16.7816 14.0085 15.3629 14.0376C14.4452 14.0673 13.5509 14.3341 12.767 14.8122C11.9831 15.2903 11.3364 15.9632 10.89 16.7655C8.95597 20.1139 10.3986 25.035 12.2512 27.7416C13.1781 29.0669 14.2613 30.5474 15.6788 30.4949C17.0659 30.4374 17.5839 29.6104 19.2582 29.6104C20.917 29.6104 21.403 30.4949 22.8492 30.4615C24.3376 30.4374 25.2753 29.1303 26.1697 27.7924C26.8357 26.848 27.3481 25.8043 27.6881 24.6999C26.8234 24.3341 26.0855 23.722 25.5664 22.9397C25.0473 22.1574 24.7699 21.2396 24.7689 20.3007Z" fill="white"/>
<path d="M22.0373 12.2109C22.8488 11.2367 23.2486 9.98451 23.1518 8.72028C21.9119 8.8505 20.7667 9.44306 19.9442 10.3799C19.5421 10.8376 19.2341 11.37 19.0378 11.9468C18.8416 12.5235 18.7609 13.1333 18.8005 13.7413C19.4206 13.7477 20.0341 13.6132 20.5948 13.3482C21.1555 13.0831 21.6487 12.6942 22.0373 12.2109Z" fill="white"/>
<path d="M42.3023 27.1396H37.5689L36.4322 30.4961H34.4273L38.9107 18.0781H40.9937L45.4771 30.4961H43.438L42.3023 27.1396ZM38.0591 25.5908H41.8111L39.9615 20.1435H39.9097L38.0591 25.5908Z" fill="white"/>
<path d="M55.1597 25.9697C55.1597 28.7832 53.6538 30.5908 51.3814 30.5908C50.8057 30.6209 50.2332 30.4883 49.7294 30.2082C49.2256 29.928 48.8109 29.5117 48.5327 29.0068H48.4897V33.4912H46.6313V21.4423H48.4302V22.9482H48.4644C48.7553 22.4457 49.1771 22.0316 49.6847 21.7497C50.1923 21.4679 50.7669 21.3289 51.3472 21.3476C53.645 21.3476 55.1597 23.164 55.1597 25.9697ZM53.2495 25.9697C53.2495 24.1367 52.3023 22.9316 50.857 22.9316C49.437 22.9316 48.482 24.1621 48.482 25.9697C48.482 27.7939 49.437 29.0156 50.857 29.0156C52.3023 29.0156 53.2495 27.8193 53.2495 25.9697Z" fill="white"/>
<path d="M65.1245 25.9697C65.1245 28.7832 63.6187 30.5908 61.3462 30.5908C60.7706 30.621 60.1981 30.4883 59.6943 30.2082C59.1905 29.9281 58.7758 29.5117 58.4976 29.0068H58.4546V33.4912H56.5962V21.4424H58.395V22.9483H58.4292C58.7201 22.4458 59.1419 22.0316 59.6495 21.7498C60.1571 21.4679 60.7317 21.329 61.312 21.3477C63.6099 21.3477 65.1245 23.1641 65.1245 25.9697ZM63.2144 25.9697C63.2144 24.1367 62.2671 22.9317 60.8218 22.9317C59.4019 22.9317 58.4468 24.1621 58.4468 25.9697C58.4468 27.794 59.4019 29.0156 60.8218 29.0156C62.2671 29.0156 63.2144 27.8194 63.2144 25.9697H63.2144Z" fill="white"/>
<path d="M71.7105 27.0361C71.8482 28.2676 73.0445 29.0761 74.6792 29.0761C76.2456 29.0761 77.3726 28.2675 77.3726 27.1572C77.3726 26.1933 76.6929 25.6162 75.0835 25.2207L73.4742 24.833C71.1939 24.2822 70.1353 23.2158 70.1353 21.4853C70.1353 19.3427 72.0025 17.871 74.6538 17.871C77.2778 17.871 79.0767 19.3427 79.1372 21.4853H77.2612C77.1489 20.246 76.1245 19.498 74.6274 19.498C73.1304 19.498 72.106 20.2548 72.106 21.3564C72.106 22.2343 72.7603 22.7509 74.3608 23.1464L75.729 23.4823C78.2769 24.0849 79.3355 25.1083 79.3355 26.9247C79.3355 29.248 77.4849 30.703 74.5415 30.703C71.7876 30.703 69.9282 29.2821 69.8081 27.036L71.7105 27.0361Z" fill="white"/>
<path d="M83.3462 19.2998V21.4424H85.0679V22.9141H83.3462V27.9053C83.3462 28.6807 83.6909 29.042 84.4478 29.042C84.6522 29.0384 84.8562 29.0241 85.0591 28.999V30.4619C84.7188 30.5255 84.373 30.5543 84.0269 30.5478C82.1939 30.5478 81.479 29.8593 81.479 28.1035V22.9141H80.1626V21.4424H81.479V19.2998H83.3462Z" fill="white"/>
<path d="M86.065 25.9697C86.065 23.1211 87.7427 21.3311 90.3589 21.3311C92.9839 21.3311 94.6539 23.1211 94.6539 25.9697C94.6539 28.8262 92.9927 30.6084 90.3589 30.6084C87.7261 30.6084 86.065 28.8262 86.065 25.9697ZM92.7603 25.9697C92.7603 24.0156 91.8648 22.8623 90.3589 22.8623C88.8531 22.8623 87.9585 24.0244 87.9585 25.9697C87.9585 27.9316 88.8531 29.0762 90.3589 29.0762C91.8648 29.0762 92.7603 27.9316 92.7603 25.9697H92.7603Z" fill="white"/>
<path d="M96.1861 21.4424H97.9585V22.9834H98.0015C98.1215 22.5021 98.4034 22.0768 98.8 21.7789C99.1966 21.481 99.6836 21.3287 100.179 21.3476C100.393 21.3469 100.607 21.3702 100.816 21.417V23.1553C100.546 23.0726 100.264 23.0347 99.981 23.043C99.711 23.032 99.4419 23.0796 99.192 23.1825C98.9422 23.2854 98.7176 23.4411 98.5336 23.639C98.3496 23.8369 98.2106 24.0723 98.1262 24.3289C98.0418 24.5856 98.0139 24.8575 98.0445 25.126V30.4961H96.1861L96.1861 21.4424Z" fill="white"/>
<path d="M109.384 27.8369C109.134 29.4805 107.534 30.6084 105.486 30.6084C102.852 30.6084 101.217 28.8437 101.217 26.0127C101.217 23.1729 102.861 21.3311 105.408 21.3311C107.913 21.3311 109.488 23.0518 109.488 25.7969V26.4336H103.093V26.5459C103.064 26.8791 103.105 27.2148 103.216 27.5306C103.326 27.8464 103.502 28.1352 103.732 28.3778C103.963 28.6203 104.242 28.8111 104.552 28.9374C104.861 29.0637 105.195 29.1226 105.529 29.1103C105.968 29.1515 106.409 29.0498 106.785 28.8203C107.162 28.5909 107.455 28.246 107.62 27.8369L109.384 27.8369ZM103.102 25.1348H107.628C107.645 24.8352 107.6 24.5354 107.495 24.2541C107.39 23.9729 107.229 23.7164 107.02 23.5006C106.812 23.2849 106.561 23.1145 106.283 23.0003C106.006 22.8861 105.708 22.8305 105.408 22.8369C105.105 22.8351 104.805 22.8933 104.525 23.008C104.245 23.1227 103.99 23.2918 103.776 23.5054C103.562 23.7191 103.392 23.973 103.276 24.2527C103.16 24.5323 103.101 24.8321 103.102 25.1348V25.1348Z" fill="white"/>
<path d="M36.7383 11.2535H37.5362C37.6735 11.2706 37.8129 11.259 37.9456 11.2196C38.0782 11.1801 38.2013 11.1136 38.307 11.0243C38.4127 10.9349 38.4987 10.8246 38.5597 10.7004C38.6206 10.5761 38.6552 10.4406 38.6612 10.3023C38.6612 9.75199 38.2471 9.39652 37.5449 9.39652C37.4042 9.37686 37.261 9.38559 37.1237 9.4222C36.9864 9.45881 36.8579 9.52255 36.7456 9.60967C36.6334 9.69678 36.5398 9.8055 36.4702 9.92941C36.4007 10.0533 36.3567 10.1899 36.3408 10.3311H35.4648C35.4799 10.0748 35.5476 9.82434 35.6637 9.59533C35.7797 9.36632 35.9417 9.16365 36.1395 8.99995C36.3373 8.83624 36.5666 8.71501 36.8133 8.64378C37.06 8.57256 37.3186 8.55289 37.5732 8.58597C38.748 8.58597 39.5752 9.24368 39.5752 10.1905C39.578 10.5076 39.4719 10.8162 39.2746 11.0645C39.0773 11.3129 38.8008 11.4861 38.4912 11.5552V11.6255C38.8582 11.6418 39.2039 11.8027 39.4526 12.0731C39.7013 12.3435 39.8328 12.7013 39.8184 13.0684C39.7912 13.3323 39.7117 13.5881 39.5844 13.8208C39.4571 14.0536 39.2846 14.2586 39.077 14.4238C38.8695 14.589 38.631 14.7111 38.3756 14.783C38.1203 14.8549 37.8531 14.875 37.5899 14.8423C37.3261 14.8783 37.0577 14.8608 36.8008 14.7908C36.5439 14.7209 36.3037 14.5999 36.0946 14.4351C35.8854 14.2704 35.7116 14.0652 35.5835 13.8318C35.4553 13.5984 35.3755 13.3416 35.3487 13.0767H36.2383C36.292 13.6475 36.8164 14.0157 37.5899 14.0157C38.3633 14.0157 38.8682 13.6021 38.8682 13.0191C38.8682 12.4278 38.3926 12.0636 37.5616 12.0636H36.7383V11.2535Z" fill="white"/>
<path d="M40.8291 13.4244C40.8291 12.6138 41.4336 12.1465 42.5039 12.0801L43.7237 12.0098V11.6212C43.7237 11.1456 43.4102 10.877 42.8018 10.877C42.3057 10.877 41.9629 11.0591 41.8633 11.3775H41.003C41.0938 10.6041 41.8223 10.108 42.8438 10.108C43.9727 10.108 44.6094 10.67 44.6094 11.6212V14.6978H43.753V14.065H43.6827C43.5399 14.292 43.3395 14.477 43.1019 14.6013C42.8643 14.7255 42.598 14.7844 42.3301 14.772C42.1411 14.7917 41.95 14.7715 41.7693 14.7128C41.5885 14.6541 41.422 14.5582 41.2806 14.4312C41.1392 14.3042 41.026 14.149 40.9482 13.9756C40.8704 13.8022 40.8299 13.6144 40.8291 13.4244ZM43.7237 13.0396V12.6631L42.624 12.7335C42.0039 12.775 41.7226 12.9859 41.7226 13.3829C41.7226 13.7881 42.0742 14.024 42.5576 14.024C42.6993 14.0383 42.8424 14.024 42.9784 13.9819C43.1144 13.9398 43.2405 13.8708 43.3493 13.779C43.4581 13.6871 43.5473 13.5744 43.6116 13.4473C43.6759 13.3203 43.714 13.1816 43.7237 13.0396Z" fill="white"/>
<path d="M46.9678 10.9429V14.6978H46.0791V10.1948H49.044V10.9428L46.9678 10.9429Z" fill="white"/>
<path d="M54.4297 12.4444C54.4297 13.875 53.7061 14.772 52.5694 14.772C52.2903 14.7911 52.0117 14.73 51.7662 14.596C51.5207 14.462 51.3185 14.2606 51.1836 14.0156H51.1133V16.1948H50.2246V10.1948H51.0801V10.939H51.1465C51.2839 10.6855 51.4886 10.4748 51.7381 10.3303C51.9877 10.1858 52.2723 10.1131 52.5606 10.1202C53.7061 10.1201 54.4297 11.0132 54.4297 12.4444ZM53.5157 12.4444C53.5157 11.4932 53.0655 10.9185 52.3125 10.9185C51.5645 10.9185 51.0967 11.5054 51.0967 12.4483C51.0967 13.3867 51.5645 13.9741 52.3086 13.9741C53.0655 13.9741 53.5157 13.3994 53.5157 12.4444Z" fill="white"/>
<path d="M55.6133 16.3106V15.5454C55.7095 15.5576 55.8064 15.5632 55.9033 15.562C56.0926 15.576 56.2805 15.5197 56.4308 15.4037C56.5811 15.2877 56.6833 15.1203 56.7178 14.9336L56.7842 14.7144L55.1543 10.1948H56.1221L57.251 13.7715H57.3213L58.4463 10.1948H59.3887L57.71 14.8838C57.3252 15.9795 56.8994 16.3311 55.9815 16.3311C55.9072 16.3311 55.6963 16.3228 55.6133 16.3106Z" fill="white"/>
<path d="M60.0811 13.42H60.9658C61.0527 13.817 61.4248 14.024 61.9453 14.024C62.5371 14.024 62.9004 13.7632 62.9004 13.358C62.9004 12.9239 62.5742 12.7169 61.9453 12.7169H61.2715V12.0264H61.9336C62.4707 12.0264 62.7442 11.8199 62.7442 11.4434C62.7442 11.1129 62.4795 10.8604 61.9336 10.8604C61.4365 10.8604 61.0733 11.0714 61.0156 11.4268H60.1592C60.2232 11.0184 60.445 10.6514 60.7768 10.4047C61.1087 10.1581 61.524 10.0515 61.9336 10.108C63.0039 10.108 63.6162 10.5919 63.6162 11.3526C63.6212 11.5645 63.5533 11.7716 63.4239 11.9394C63.2945 12.1072 63.1114 12.2255 62.9053 12.2745V12.3448C63.1507 12.3765 63.376 12.4971 63.5384 12.6839C63.7008 12.8706 63.7889 13.1105 63.7862 13.358C63.7862 14.214 63.0576 14.7803 61.9453 14.7803C60.9619 14.7803 60.1631 14.3296 60.0811 13.42Z" fill="white"/>
<path d="M65.0659 14.6978V10.1948H65.9468V13.292H66.0171L68.0923 10.1948H68.9732V14.6978H68.0923V11.584H68.0259L65.9468 14.6978L65.0659 14.6978Z" fill="white"/>
<path d="M73.8257 10.9429H72.4077V14.6978H71.5181V10.9429H70.1001V10.1949H73.8257V10.9429Z" fill="white"/>
<path d="M78.6128 13.482C78.4917 13.8935 78.2299 14.2494 77.8731 14.4875C77.5163 14.7256 77.0872 14.8308 76.6607 14.7847C76.364 14.7925 76.0692 14.7357 75.7967 14.6182C75.5242 14.5006 75.2805 14.3252 75.0826 14.1041C74.8847 13.8829 74.7373 13.6214 74.6506 13.3376C74.5639 13.0537 74.54 12.7544 74.5806 12.4605C74.5411 12.1656 74.5654 11.8656 74.6519 11.581C74.7384 11.2963 74.885 11.0335 75.0819 10.8105C75.2787 10.5874 75.5212 10.4092 75.793 10.288C76.0647 10.1668 76.3593 10.1054 76.6568 10.1079C77.9097 10.1079 78.6665 10.9639 78.6665 12.3779V12.688H75.4868V12.7378C75.4728 12.9031 75.4934 13.0695 75.5475 13.2263C75.6015 13.3831 75.6878 13.5269 75.8008 13.6484C75.9137 13.7699 76.0508 13.8664 76.2033 13.9318C76.3557 13.9971 76.5202 14.0298 76.6861 14.0278C76.8985 14.0532 77.1137 14.0149 77.3043 13.9177C77.4948 13.8205 77.6522 13.6688 77.7564 13.4819L78.6128 13.482ZM75.4868 12.0308H77.7603C77.7715 11.8797 77.751 11.728 77.7001 11.5853C77.6492 11.4427 77.5691 11.3122 77.4648 11.2024C77.3605 11.0925 77.2344 11.0057 77.0946 10.9475C76.9547 10.8893 76.8043 10.8609 76.6528 10.8643C76.4991 10.8622 76.3465 10.8909 76.204 10.9488C76.0616 11.0067 75.9322 11.0926 75.8235 11.2013C75.7148 11.3101 75.629 11.4395 75.5712 11.582C75.5134 11.7244 75.4847 11.877 75.4868 12.0308H75.4868Z" fill="white"/>
<path d="M82.3804 10.1948H84.4107C85.2915 10.1948 85.8081 10.6411 85.8081 11.3398C85.8095 11.5615 85.7347 11.777 85.5962 11.9501C85.4577 12.1233 85.264 12.2436 85.0474 12.291V12.3613C85.3104 12.3779 85.5569 12.4949 85.7361 12.6881C85.9153 12.8813 86.0134 13.1359 86.0103 13.3994C86.0103 14.185 85.4194 14.6977 84.4312 14.6977H82.3804V10.1948ZM83.2613 10.877V12.043H84.1421C84.6792 12.043 84.9361 11.8364 84.9361 11.4556C84.9361 11.1045 84.7124 10.8769 84.2408 10.8769L83.2613 10.877ZM83.2613 12.6963V14.0156H84.315C84.8404 14.0156 85.1216 13.7837 85.1216 13.3579C85.1216 12.9072 84.8033 12.6963 84.2036 12.6963L83.2613 12.6963Z" fill="white"/>
</svg>
